<?xml version="1.0" standalone="no"?>
<!DOCTYPE svg PUBLIC "-//W3C//DTD SVG 20010904//EN"
 "http://www.w3.org/TR/2001/REC-SVG-20010904/DTD/svg10.dtd">
<svg version="1.0" xmlns="http://www.w3.org/2000/svg"
 width="1500.000000pt" height="1500.000000pt" viewBox="0 0 1500.000000 1500.000000"
 preserveAspectRatio="xMidYMid meet">

<g transform="translate(0.000000,1500.000000) scale(0.100000,-0.100000)"
fill="#000000" stroke="none">
<path d="M7981 14074 c-85 -108 12 -381 284 -804 220 -341 296 -524 298 -720
3 -230 -65 -389 -317 -740 -243 -339 -321 -486 -373 -703 -34 -140 -19 -339
34 -441 26 -50 35 -15 12 49 -27 75 -36 229 -20 317 41 215 137 394 404 750
159 212 220 305 277 423 103 214 131 389 91 580 -36 172 -90 285 -286 590
-176 275 -229 388 -260 561 -21 114 -22 116 -46 142 -28 31 -72 29 -98 -4z"/>
<path d="M7820 13013 c-21 -26 -22 -35 -16 -138 13 -236 -32 -364 -269 -760
-135 -227 -168 -292 -210 -419 -47 -141 -62 -275 -46 -415 23 -203 69 -340
249 -753 185 -422 237 -594 250 -831 l7 -122 8 85 c14 159 -22 370 -100 578
-20 53 -75 192 -123 307 -167 398 -195 509 -195 760 1 165 2 173 32 262 50
143 109 250 268 487 227 337 305 535 305 768 0 102 -15 151 -57 188 -42 38
-75 38 -103 3z"/>
<path d="M9275 11809 c-4 -17 -5 -32 -3 -35 3 -2 45 -19 94 -37 61 -23 88 -38
86 -48 -2 -8 -48 -134 -103 -282 -54 -147 -99 -270 -99 -272 0 -10 74 -35 80
-28 4 5 51 128 105 275 54 147 101 272 105 278 6 9 70 -10 181 -55 12 -4 20 3
29 25 8 18 9 35 4 40 -5 4 -47 22 -94 38 -47 17 -147 53 -222 81 -76 28 -142
51 -147 51 -5 0 -12 -14 -16 -31z"/>
<path d="M6051 11614 c-29 -8 -92 -34 -140 -59 -144 -76 -146 -30 17 -372 87
-184 148 -299 157 -301 9 -2 67 21 128 51 175 86 245 169 255 300 12 168 -85
333 -225 383 -49 17 -124 17 -192 -2z m176 -85 c122 -59 197 -270 136 -385
-12 -22 -41 -58 -64 -78 -43 -40 -157 -98 -172 -89 -5 3 -21 33 -37 67 -15 33
-51 111 -80 171 -76 160 -110 236 -110 246 0 9 108 67 150 80 50 15 132 10
177 -12z"/>
<path d="M10055 11139 c-148 -121 -271 -223 -272 -227 -2 -4 13 -17 32 -29
l34 -23 78 66 c43 36 84 68 90 71 10 4 171 -88 206 -117 4 -3 -4 -54 -18 -113
-14 -59 -25 -109 -25 -111 0 -7 71 -49 75 -44 5 5 165 676 165 691 0 12 -71
58 -87 56 -4 0 -129 -99 -278 -220z m251 25 c-13 -54 -30 -125 -37 -156 -7
-32 -16 -58 -21 -58 -10 0 -136 77 -156 95 -10 9 8 28 85 92 54 44 109 92 123
106 14 14 26 24 28 23 1 -2 -9 -48 -22 -102z"/>
<path d="M5206 11115 c-27 -21 -28 -26 -15 -42 17 -22 258 -307 312 -368 l38
-44 -83 34 c-46 18 -185 66 -310 106 l-226 73 -36 -28 c-20 -15 -36 -30 -36
-34 0 -7 383 -468 419 -505 17 -18 19 -17 49 8 l31 26 -163 192 c-90 106 -174
203 -187 216 -27 29 -26 28 86 -14 39 -15 173 -60 299 -101 l230 -73 32 28 32
29 -195 233 c-107 129 -207 246 -221 261 l-27 27 -29 -24z"/>
<path d="M11011 10750 c-42 -10 -79 -37 -108 -80 -33 -48 -31 -122 7 -217 40
-100 41 -159 1 -197 -40 -38 -103 -45 -148 -17 -39 24 -100 105 -108 144 -8
32 -7 32 -45 12 -37 -19 -37 -27 -1 -90 34 -59 108 -131 156 -151 117 -48 251
27 263 146 4 40 -3 74 -33 163 -36 110 -36 114 -21 151 20 48 72 72 120 56 37
-12 96 -70 120 -117 9 -18 18 -33 21 -33 12 0 55 24 55 31 0 45 -74 137 -137
171 -57 30 -96 38 -142 28z"/>
<path d="M8533 10655 c-6 -11 -25 -94 -43 -185 -52 -275 -100 -489 -136 -613
-37 -130 -41 -168 -19 -187 45 -37 75 26 129 275 55 255 70 346 85 535 11 128
3 210 -16 175z"/>
<path d="M6570 10387 c0 -49 121 -375 231 -619 21 -48 44 -108 50 -135 7 -26
16 -54 22 -60 15 -21 64 -16 81 8 16 24 13 38 -20 89 -13 19 -34 64 -48 100
-47 124 -213 489 -255 560 -39 66 -61 86 -61 57z"/>
<path d="M5920 10338 c0 -14 73 -214 116 -315 47 -111 155 -334 221 -459 21
-39 45 -86 53 -105 20 -45 59 -51 95 -15 14 14 25 29 25 34 0 5 -17 31 -38 58
-42 52 -71 103 -301 509 -81 143 -153 269 -159 280 -6 11 -12 17 -12 13z"/>
<path d="M9217 10303 c-3 -4 -21 -48 -42 -98 -67 -162 -173 -358 -250 -460
-57 -76 -75 -108 -75 -132 0 -41 30 -73 70 -73 40 0 64 29 85 103 44 155 56
189 100 307 63 166 126 353 121 357 -2 3 -6 1 -9 -4z"/>
<path d="M9848 10182 c-42 -64 -126 -202 -187 -305 -60 -103 -124 -207 -140
-229 -38 -51 -39 -72 -6 -94 38 -25 67 -7 90 52 10 27 73 157 141 289 125 244
199 405 186 405 -4 0 -41 -53 -84 -118z"/>
<path d="M4275 10153 c-14 -21 -25 -41 -25 -45 0 -4 66 -101 148 -215 81 -115
174 -246 206 -292 l59 -83 18 23 c35 45 33 56 -20 126 -82 110 -81 102 -27
180 25 37 57 81 69 97 l23 29 109 -32 108 -33 23 29 c13 15 23 33 24 38 0 8
-660 217 -682 215 -4 0 -19 -17 -33 -37z m182 -91 c48 -16 112 -35 141 -43 28
-7 52 -18 52 -24 0 -12 -97 -149 -109 -153 -5 -1 -37 37 -71 85 -35 48 -79
108 -99 132 -21 27 -29 42 -19 38 9 -3 56 -19 105 -35z"/>
<path d="M11623 10128 c-31 -15 -29 -25 16 -95 70 -109 72 -96 -21 -156 -46
-30 -159 -102 -253 -162 -93 -59 -172 -109 -173 -110 -2 -2 7 -20 21 -39 l24
-36 164 103 c90 57 204 129 252 160 48 31 91 57 95 57 4 0 31 -38 61 -85 29
-47 55 -85 58 -85 10 0 53 33 53 41 0 5 -42 74 -92 154 -51 79 -109 170 -128
202 -40 63 -45 66 -77 51z"/>
<path d="M5371 9780 c24 -50 145 -218 248 -345 59 -71 128 -158 155 -193 56
-73 87 -96 116 -87 25 8 43 40 35 63 -3 9 -132 145 -286 302 -154 157 -275
274 -268 260z"/>
<path d="M10367 9685 c-225 -123 -381 -221 -397 -249 -13 -23 -13 -29 0 -53 9
-15 28 -32 42 -37 34 -12 58 4 241 159 171 145 286 254 267 254 -8 0 -77 -33
-153 -74z"/>
<path d="M7550 9404 c-924 -65 -1604 -270 -1947 -588 -86 -79 -153 -177 -182
-263 -29 -85 -29 -211 0 -295 150 -446 969 -776 2109 -849 230 -15 776 -6 985
15 817 84 1410 283 1721 578 151 143 218 307 194 468 -63 407 -687 744 -1625
879 -303 44 -431 53 -820 56 -209 1 -405 1 -435 -1z m780 -214 c738 -52 1360
-226 1688 -472 241 -181 270 -368 86 -553 -254 -256 -838 -450 -1600 -532
-213 -22 -925 -26 -1124 -5 -449 47 -754 108 -1064 213 -445 150 -706 359
-706 565 0 227 314 450 865 613 273 80 660 146 1005 170 179 12 680 13 850 1z"/>
<path d="M7520 9069 c-463 -40 -903 -147 -1299 -318 -98 -42 -317 -155 -375
-193 -81 -53 -108 -155 -64 -238 19 -34 38 -52 79 -73 80 -43 103 -36 272 76
224 149 400 236 675 331 194 67 527 147 753 180 259 38 793 39 1139 1 425 -47
774 -156 1033 -324 52 -34 101 -61 110 -61 17 0 47 36 47 58 0 39 -213 186
-390 271 -270 128 -665 227 -1101 277 -169 19 -717 27 -879 13z"/>
<path d="M7850 8803 c-641 -24 -1258 -240 -1690 -590 -81 -66 -156 -140 -149
-147 12 -11 301 -119 414 -155 771 -241 1590 -282 2403 -121 308 61 615 151
853 250 172 72 289 128 289 137 0 9 -72 73 -187 165 -380 307 -767 426 -1492
458 -206 9 -269 10 -441 3z"/>
<path d="M12006 9089 c-82 -90 -154 -167 -160 -170 -6 -4 -67 -26 -136 -50
-69 -23 -126 -43 -128 -44 -3 -2 20 -69 27 -77 3 -4 67 15 142 41 l135 48 217
-42 c119 -23 219 -40 221 -38 6 7 -15 66 -28 79 -6 6 -87 22 -181 34 -93 12
-172 24 -174 26 -2 2 51 60 118 130 66 70 121 134 120 143 0 9 -6 31 -13 50
l-12 34 -148 -164z"/>
<path d="M4765 9139 c-14 -21 120 -134 313 -263 166 -111 198 -129 233 -130
29 -1 45 4 53 17 22 34 -12 66 -149 140 -71 38 -174 98 -228 133 -145 95 -209
125 -222 103z"/>
<path d="M10613 9056 c-73 -25 -149 -54 -169 -66 -60 -38 -68 -100 -17 -140
50 -39 104 -21 231 76 232 178 218 217 -45 130z"/>
<path d="M3562 8639 c-35 -133 -61 -243 -59 -245 2 -3 18 -9 35 -14 35 -10 28
-22 66 123 8 33 17 61 20 64 3 3 67 -11 143 -30 76 -20 207 -54 291 -76 l153
-40 10 25 c21 57 19 58 -138 99 -286 72 -418 108 -427 116 -4 4 2 50 15 103
12 52 21 97 18 100 -2 2 -17 7 -34 10 l-30 6 -63 -241z"/>
<path d="M10870 8553 c-11 -15 -18 -33 -15 -41 3 -7 5 -20 5 -28 0 -21 66 -47
88 -35 37 20 94 80 87 91 -11 18 -70 40 -109 40 -26 0 -40 -7 -56 -27z"/>
<path d="M4615 8374 c11 -9 96 -54 188 -100 93 -46 180 -93 194 -104 48 -37
112 -21 132 33 22 58 -21 107 -95 107 -19 0 -63 7 -97 15 -68 16 -323 65 -335
65 -4 0 2 -8 13 -16z"/>
<path d="M12171 8189 c-112 -21 -205 -40 -208 -43 -3 -2 -2 -18 2 -35 5 -25
11 -30 28 -26 12 2 119 16 237 31 118 15 217 28 218 30 2 1 1 21 -3 43 -6 38
-9 41 -38 40 -18 -1 -124 -18 -236 -40z"/>
<path d="M11776 8131 c-25 -27 -17 -72 15 -90 57 -32 120 47 74 93 -22 22 -68
20 -89 -3z"/>
<path d="M11294 7940 c-7 -7 -8 -32 -2 -73 12 -81 3 -210 -21 -285 -63 -202
-233 -369 -541 -531 -170 -89 -495 -230 -505 -219 -1 1 41 91 94 199 53 107
134 285 180 394 73 173 83 204 78 242 -9 86 -104 149 -186 124 -57 -17 -90
-63 -140 -198 -278 -746 -624 -1278 -1036 -1594 -279 -214 -599 -343 -985
-398 -143 -20 -308 -36 -300 -28 3 2 52 14 108 26 454 97 883 331 1213 662
225 226 371 443 448 662 17 49 31 90 31 93 0 11 -29 2 -33 -11 -12 -31 -174
-275 -253 -380 -422 -566 -1053 -859 -1789 -832 -471 18 -809 122 -1101 340
-134 100 -220 142 -273 133 -35 -5 -40 -2 -92 52 -265 274 -552 762 -729 1237
-20 55 -49 123 -63 150 l-26 50 -1 -62 c0 -72 47 -264 111 -453 151 -448 402
-853 729 -1180 148 -148 235 -221 390 -324 371 -248 768 -369 1256 -383 405
-12 751 48 1063 183 175 75 299 148 481 282 92 67 365 341 438 438 54 71 54
71 110 77 47 4 103 29 327 141 527 264 851 499 1006 727 112 166 168 374 140
524 -20 106 -100 242 -127 215z"/>
<path d="M3645 7886 c-153 -38 -238 -142 -239 -296 -1 -63 4 -84 27 -132 103
-210 442 -252 604 -75 122 133 85 370 -72 462 -81 48 -220 66 -320 41z m249
-106 c113 -43 174 -163 135 -267 -31 -84 -139 -143 -263 -143 -177 0 -286 81
-287 214 -2 174 208 273 415 196z"/>
<path d="M4527 7646 c-65 -14 -91 -34 -81 -60 11 -29 49 -36 202 -36 143 0
321 -18 392 -40 79 -23 120 -5 120 54 0 56 -22 65 -176 81 -169 17 -378 18
-457 1z"/>
<path d="M5090 7084 c-128 -66 -271 -126 -369 -153 -105 -29 -139 -66 -78 -82
48 -13 349 76 478 142 77 38 119 76 119 105 0 19 -25 45 -42 44 -2 -1 -50 -25
-108 -56z"/>
<path d="M12034 6989 c-31 -15 -60 -85 -98 -234 -38 -146 -147 -458 -226 -646
-29 -68 -72 -176 -96 -239 -116 -301 -295 -586 -571 -912 -47 -55 -82 -102
-79 -105 2 -3 20 12 38 33 18 20 38 42 43 48 63 65 274 351 440 596 65 96 148
215 183 264 136 188 237 394 367 746 115 313 131 389 90 429 -25 25 -64 33
-91 20z"/>
<path d="M4065 6820 c-38 -10 -169 -41 -290 -70 -121 -28 -236 -56 -256 -61
l-37 -9 10 -40 c7 -26 16 -40 27 -40 9 0 70 13 136 29 66 16 122 27 124 25 10
-10 79 -310 73 -315 -4 -4 -50 -16 -103 -28 -145 -33 -168 -41 -164 -54 2 -7
6 -24 9 -39 4 -16 13 -28 22 -28 17 0 634 149 645 156 6 3 -7 73 -16 82 -1 2
-66 -13 -143 -33 -78 -19 -147 -35 -154 -35 -19 0 -95 309 -79 320 7 4 77 22
157 40 118 27 143 36 140 49 -3 9 -8 28 -12 44 -3 15 -9 27 -13 26 -3 0 -37
-9 -76 -19z"/>
<path d="M2994 6730 c71 -556 192 -962 432 -1450 186 -379 424 -733 708 -1056
144 -165 463 -473 513 -497 131 -61 207 103 92 196 -135 109 -200 167 -318
282 -497 486 -902 1090 -1152 1723 -88 220 -192 540 -240 737 -24 100 -44 137
-35 65z"/>
<path d="M5345 6619 c-46 -25 -137 -76 -285 -163 -110 -64 -258 -192 -242
-208 22 -22 137 25 602 250 31 15 35 22 38 58 3 35 -1 45 -24 63 -33 26 -40
26 -89 0z"/>
<path d="M11080 6520 c-43 -43 -6 -116 55 -107 40 6 105 45 105 63 0 18 -81
64 -113 64 -15 0 -36 -9 -47 -20z"/>
<path d="M10516 6278 c-19 -27 -21 -72 -3 -86 7 -6 51 -23 97 -38 102 -32 258
-93 343 -134 l62 -31 -50 46 c-111 101 -362 265 -406 265 -17 0 -34 -8 -43
-22z"/>
<path d="M12425 6032 c-254 -445 -483 -798 -719 -1112 -343 -456 -540 -655
-757 -765 -50 -26 -70 -42 -83 -68 -50 -107 28 -225 140 -214 79 8 242 136
378 295 352 416 801 1154 1029 1692 60 141 149 380 145 391 -2 4 -61 -94 -133
-219z"/>
<path d="M5571 6175 c-63 -29 -231 -146 -315 -219 -148 -127 -321 -362 -303
-409 13 -35 47 -15 160 91 191 182 353 305 487 372 123 61 161 124 104 169
-35 27 -67 26 -133 -4z"/>
<path d="M10142 5974 c-22 -15 -30 -58 -14 -80 4 -6 30 -25 57 -44 57 -38 244
-178 385 -289 115 -90 197 -131 260 -131 l45 1 -48 19 c-52 20 -128 74 -192
136 -22 22 -110 102 -195 179 -85 76 -175 159 -200 182 -49 47 -64 51 -98 27z"/>
<path d="M9726 5719 c-51 -40 -39 -64 97 -195 204 -197 423 -375 642 -521 190
-127 191 -125 13 28 -182 156 -407 377 -559 550 -109 125 -145 159 -163 159
-2 0 -15 -9 -30 -21z"/>
<path d="M6024 5661 c-157 -118 -311 -314 -385 -491 -58 -139 -42 -177 30 -71
112 165 258 326 389 428 69 55 82 69 82 94 0 33 -31 69 -58 69 -11 0 -37 -13
-58 -29z"/>
<path d="M4295 5425 c-41 -40 -34 -87 31 -212 199 -381 426 -698 661 -923 93
-90 206 -170 220 -157 10 11 -57 111 -150 222 -263 314 -467 639 -571 910 -49
128 -60 148 -91 166 -41 26 -71 24 -100 -6z"/>
<path d="M8940 5298 c-177 -114 -383 -181 -649 -208 -134 -13 -654 -13 -779 1
-171 18 -366 74 -449 127 -13 8 -23 11 -23 8 0 -12 140 -97 207 -125 186 -79
462 -129 829 -150 375 -21 666 43 880 195 66 46 124 107 124 128 0 21 -40 66
-59 66 -9 0 -46 -19 -81 -42z"/>
<path d="M6408 5318 c-23 -20 -231 -267 -349 -415 -125 -158 -161 -216 -201
-325 -17 -46 -40 -96 -50 -111 -24 -33 -20 -40 16 -31 33 8 81 64 126 145 24
44 84 114 190 224 417 430 390 400 390 437 0 66 -76 113 -122 76z"/>
<path d="M9506 5184 c-9 -8 -13 -21 -9 -27 13 -23 407 -427 411 -422 2 2 -18
30 -45 62 -27 32 -112 133 -187 226 -76 92 -142 169 -146 172 -5 3 -16 -2 -24
-11z"/>
<path d="M6722 4855 c-69 -62 -142 -251 -124 -320 l8 -28 15 24 c9 13 29 53
45 89 16 36 48 88 71 116 22 28 48 65 57 81 13 27 13 32 0 52 -20 28 -27 27
-72 -14z"/>
<path d="M7730 4257 c-219 -52 -352 -249 -404 -602 -23 -152 -40 -510 -32
-687 l6 -147 -115 -96 c-141 -117 -175 -161 -175 -223 0 -37 6 -50 34 -78 45
-45 84 -45 189 1 44 19 82 34 84 32 1 -2 7 -172 13 -378 13 -515 43 -731 116
-856 44 -76 113 -110 187 -94 56 13 82 34 108 88 23 46 24 57 23 248 -1 114
-11 301 -23 435 -24 269 -48 580 -53 689 l-3 75 143 85 c79 47 167 105 197
128 134 104 153 269 35 304 -34 11 -49 10 -95 -5 -54 -17 -193 -86 -267 -133
-21 -13 -38 -20 -39 -16 0 5 0 78 0 163 4 400 52 667 134 736 27 23 37 25 77
20 64 -8 80 -31 80 -116 0 -38 4 -80 10 -95 23 -60 147 -72 215 -21 158 121
46 440 -185 527 -68 26 -186 33 -260 16z"/>
<path d="M8645 4257 c-84 -22 -147 -58 -205 -117 -166 -168 -232 -489 -229
-1105 l1 -220 -88 -72 c-181 -148 -224 -213 -189 -287 34 -71 103 -84 201 -37
113 53 100 86 108 -271 11 -499 29 -685 83 -841 47 -136 127 -200 223 -178 82
18 115 66 131 189 12 93 7 187 -36 722 -19 228 -36 462 -40 520 l-6 105 113
64 c192 109 261 162 310 235 79 117 19 240 -109 221 -42 -6 -244 -103 -304
-146 -17 -12 -33 -18 -36 -15 -11 10 15 502 32 611 27 180 70 286 123 306 36
14 99 1 123 -24 15 -16 19 -35 19 -88 0 -89 11 -116 57 -136 90 -37 192 9 226
103 54 149 -45 345 -218 430 -63 31 -85 37 -157 40 -48 2 -104 -2 -133 -9z"/>
<path d="M6284 3560 c-265 -86 -415 -412 -383 -831 37 -503 324 -779 677 -655
85 30 193 115 257 200 125 168 177 380 155 633 -28 327 -138 538 -329 631 -73
35 -80 37 -196 39 -97 2 -131 -1 -181 -17z m237 -297 c38 -23 83 -111 105
-208 13 -58 18 -122 19 -235 0 -133 -3 -165 -22 -225 -39 -122 -102 -195 -158
-181 -37 9 -94 64 -120 115 -37 75 -56 150 -62 257 -13 215 47 418 140 474 39
24 61 25 98 3z"/>
<path d="M5280 3554 c-222 -59 -449 -258 -555 -486 -55 -119 -76 -209 -82
-343 -6 -148 10 -234 66 -349 68 -140 194 -255 336 -308 87 -32 296 -32 410 1
150 42 323 150 376 234 30 47 22 123 -16 153 -53 42 -89 39 -205 -17 -135 -66
-149 -70 -246 -70 -113 0 -183 27 -250 95 -185 189 -75 591 199 722 85 40 147
45 207 14 98 -50 180 5 180 122 0 94 -81 199 -178 232 -57 20 -169 20 -242 0z"/>
<path d="M9575 3531 c-238 -69 -458 -323 -535 -618 -93 -354 -7 -664 216 -785
113 -61 282 -76 430 -37 155 40 364 157 449 250 20 22 38 39 39 37 2 -1 18
-32 37 -67 125 -238 422 -309 740 -176 155 65 319 187 360 268 35 68 10 145
-57 173 -45 19 -68 13 -199 -57 -151 -79 -243 -109 -341 -109 l-77 0 -44 46
c-24 25 -43 49 -41 54 2 4 57 65 122 134 215 229 316 361 384 504 34 70 37 85
37 164 0 80 -2 89 -30 130 -71 100 -220 134 -370 83 -92 -30 -125 -49 -214
-119 -197 -154 -341 -465 -341 -735 l0 -89 -47 1 c-38 2 -62 -6 -118 -36 -194
-105 -286 -137 -395 -137 -77 0 -116 19 -144 73 l-20 35 137 142 c285 294 417
503 417 659 0 172 -188 272 -395 212z m45 -339 c0 -11 -124 -171 -181 -232
l-51 -55 6 34 c15 85 91 200 161 243 31 18 65 24 65 10z m1130 -1 c0 -14 -111
-159 -174 -226 l-55 -60 6 35 c15 84 75 180 145 230 40 29 78 39 78 21z"/>
<path d="M13277 393 c-4 -3 -7 -17 -7 -30 0 -16 -6 -23 -20 -23 -11 0 -20 -7
-20 -15 0 -8 7 -15 15 -15 22 0 18 -21 -5 -27 -22 -6 -28 -33 -7 -33 9 0 12
-10 9 -30 -3 -22 0 -30 11 -30 10 0 17 11 19 27 4 39 28 42 28 4 0 -40 19 -40
27 -1 4 21 11 30 24 30 11 0 19 7 19 15 0 8 -7 15 -15 15 -8 0 -15 7 -15 15 0
8 9 15 20 15 11 0 20 7 20 15 0 8 -7 15 -15 15 -11 0 -13 8 -8 30 4 23 2 30
-9 30 -9 0 -18 -13 -21 -30 -4 -16 -12 -30 -18 -30 -7 0 -10 12 -7 30 4 28 -9
40 -25 23z m37 -98 c-4 -8 -12 -15 -20 -15 -8 0 -11 6 -8 15 4 8 12 15 20 15
8 0 11 -6 8 -15z"/>
<path d="M13423 384 c-40 -17 -46 -48 -8 -38 24 6 24 5 27 -72 3 -66 6 -79 21
-82 15 -3 17 7 17 102 0 115 0 115 -57 90z"/>
<path d="M13582 331 c-23 -37 -42 -73 -42 -80 0 -6 18 -11 45 -11 41 0 45 -2
45 -25 0 -16 6 -25 15 -25 9 0 15 9 15 25 0 16 6 25 15 25 8 0 15 7 15 15 0 8
-7 15 -15 15 -12 0 -15 14 -15 65 0 89 -21 88 -78 -4z m45 -58 c-3 -2 -15 -3
-26 -1 -20 3 -20 3 2 38 l22 35 3 -33 c2 -19 1 -36 -1 -39z"/>
<path d="M13726 378 c-3 -13 -6 -38 -6 -56 0 -32 0 -32 40 -26 36 6 40 4 46
-20 6 -27 -9 -56 -30 -56 -6 0 -20 10 -30 21 -22 27 -44 12 -27 -19 15 -29 66
-38 96 -18 20 13 25 25 25 56 0 47 -21 70 -62 70 -23 0 -29 4 -24 16 3 9 6 18
6 20 0 2 18 4 40 4 29 0 40 4 40 15 0 11 -13 15 -54 15 -47 0 -54 -3 -60 -22z"/>
<path d="M13880 378 c-11 -12 -20 -28 -20 -35 0 -21 37 -15 43 8 8 29 51 22
55 -8 2 -15 -11 -38 -42 -71 -66 -70 -62 -82 24 -82 56 0 70 3 70 15 0 11 -12
15 -45 15 -52 0 -55 7 -19 41 26 25 54 70 54 89 0 20 -41 50 -70 50 -17 0 -38
-9 -50 -22z"/>
<path d="M14046 378 c-3 -13 -6 -38 -6 -56 0 -32 0 -32 40 -26 36 6 40 4 46
-20 6 -27 -9 -56 -30 -56 -6 0 -20 10 -30 21 -23 27 -43 12 -27 -20 16 -28 58
-38 90 -20 20 11 27 24 29 56 4 49 -16 73 -60 73 -23 0 -29 4 -24 16 3 9 6 18
6 20 0 2 18 4 40 4 29 0 40 4 40 15 0 11 -13 15 -54 15 -47 0 -54 -3 -60 -22z"/>
<path d="M14223 384 c-40 -17 -46 -48 -8 -38 24 6 24 5 27 -72 3 -66 6 -79 21
-82 15 -3 17 7 17 102 0 115 0 115 -57 90z"/>
<path d="M14383 384 c-40 -17 -46 -48 -8 -38 24 6 24 5 27 -72 3 -66 6 -79 21
-82 15 -3 17 7 17 102 0 115 0 115 -57 90z"/>
</g>
</svg>
