<?xml version="1.0" standalone="no"?>
<!DOCTYPE svg PUBLIC "-//W3C//DTD SVG 20010904//EN"
 "http://www.w3.org/TR/2001/REC-SVG-20010904/DTD/svg10.dtd">
<svg version="1.0" xmlns="http://www.w3.org/2000/svg"
 width="256.000000pt" height="256.000000pt" viewBox="0 0 256.000000 256.000000"
 preserveAspectRatio="xMidYMid meet">

<g transform="translate(0.000000,256.000000) scale(0.100000,-0.100000)"
fill="#000000" stroke="none">
<path d="M1073 2325 c-35 -15 -63 -60 -63 -100 0 -36 42 -75 80 -75 32 0 70
30 70 55 0 22 -9 19 -32 -10 -23 -30 -63 -33 -78 -6 -29 56 9 131 67 131 63 0
78 -43 51 -149 -24 -91 -21 -125 9 -129 16 -2 28 5 42 29 l19 32 4 -29 c7 -63
72 -33 81 38 3 22 11 46 17 52 9 8 10 0 5 -35 -8 -56 8 -74 37 -39 25 31 23
48 -3 19 -14 -16 -19 -18 -15 -7 12 40 17 86 9 91 -4 3 -20 3 -35 0 -23 -4
-27 -12 -38 -69 -9 -46 -17 -64 -28 -64 -12 0 -14 10 -9 63 3 34 14 95 23 134
16 65 15 97 -2 81 -3 -4 -16 -54 -29 -112 -24 -105 -48 -166 -64 -166 -18 0
-18 27 0 95 10 39 18 80 18 92 1 34 -19 70 -46 82 -31 14 -51 13 -90 -4z"/>
<path d="M945 2010 c-4 -7 100 -10 305 -10 205 0 309 3 305 10 -4 6 -117 10
-305 10 -188 0 -301 -4 -305 -10z"/>
<path d="M1032 1369 c-194 -16 -435 -79 -547 -142 l-40 -23 -3 -173 c-1 -95 1
-171 5 -169 76 38 157 71 211 88 402 125 1014 99 1325 -56 37 -19 70 -34 73
-34 2 0 4 76 4 170 l0 169 -45 26 c-44 26 -211 87 -271 100 -30 6 -31 5 -26
-20 4 -22 -6 -36 -62 -91 -38 -37 -66 -72 -66 -84 0 -26 18 -25 47 2 13 12 23
17 23 10 0 -17 -51 -52 -76 -52 -19 0 -24 5 -24 27 0 25 -1 25 -18 10 -23 -21
-39 -21 -50 -1 -6 11 -11 13 -16 5 -13 -20 -46 -13 -46 11 0 20 -1 20 -20 3
-21 -19 -50 -14 -50 10 0 19 -14 19 -30 0 -18 -22 -57 -19 -71 6 l-11 21 -19
-21 c-27 -29 -63 -27 -83 4 -16 24 -16 28 3 69 20 47 49 70 75 60 34 -13 0
-84 -40 -84 -11 0 -14 -5 -10 -16 3 -9 6 -18 6 -20 0 -2 9 -4 19 -4 19 0 61
47 61 69 0 36 81 69 93 37 8 -21 -4 -56 -19 -56 -10 0 -13 7 -8 25 3 14 2 25
-4 25 -31 0 -53 -79 -28 -100 14 -11 20 -9 42 11 14 13 33 41 41 62 8 20 21
37 29 37 18 0 18 -9 -2 -55 -8 -20 -14 -47 -12 -59 3 -18 9 -13 42 32 43 59
72 80 89 63 6 -6 19 -11 29 -11 18 0 18 -1 -1 -37 -10 -21 -22 -49 -26 -63 -7
-25 -7 -25 24 4 17 17 31 33 31 38 0 20 66 112 92 128 l29 17 -78 12 c-196 30
-389 36 -591 20z m418 -43 c0 -8 -5 -18 -10 -21 -17 -11 -40 3 -34 20 8 19 44
20 44 1z m-510 -43 c0 -30 48 -106 61 -97 5 3 9 25 9 50 0 37 3 45 18 43 9 -1
25 1 35 6 30 13 50 -14 44 -60 -3 -22 -8 -49 -13 -60 -7 -20 -7 -20 14 -1 12
11 22 14 22 8 0 -20 -48 -45 -75 -38 -24 6 -25 5 -25 -49 0 -30 -4 -55 -10
-55 -6 0 -10 27 -10 62 l0 61 -23 -21 c-25 -23 -52 -28 -62 -12 -3 6 5 14 20
20 25 10 26 10 9 42 l-17 33 -18 -54 c-23 -72 -52 -89 -91 -54 -26 23 -25 96
3 124 11 11 28 19 37 17 27 -5 26 -45 -2 -73 -25 -25 -26 -55 -1 -55 36 0 64
77 50 140 -4 16 -4 34 0 40 12 19 25 10 25 -17z"/>
<path d="M1046 1244 c-10 -25 -7 -84 4 -84 13 0 30 43 30 76 0 27 -24 33 -34
8z"/>
<path d="M847 1224 c-4 -4 -7 -19 -7 -33 l0 -25 16 23 c15 21 7 51 -9 35z"/>
<path d="M1664 1273 c-43 -59 -46 -79 -5 -34 23 24 41 47 41 52 0 17 -16 9
-36 -18z"/>
<path d="M1187 1263 c-10 -10 -8 -33 3 -33 5 0 14 9 20 20 8 15 8 20 -3 20 -8
0 -17 -3 -20 -7z"/>
<path d="M1487 1222 c-9 -10 -20 -34 -24 -53 -6 -31 -5 -33 11 -20 19 16 46
63 46 81 0 16 -15 12 -33 -8z"/>
<path d="M47 1022 c12 -9 51 -39 87 -67 l65 -50 -82 -83 -82 -82 290 2 290 3
3 88 c2 58 -1 87 -8 87 -6 0 -46 -16 -88 -36 l-77 -36 77 -39 c42 -21 79 -43
82 -48 4 -5 -34 11 -84 36 l-90 46 0 98 0 99 -202 0 c-194 0 -202 -1 -181 -18z"/>
<path d="M2070 941 l0 -100 -72 -35 c-142 -68 -148 -65 177 -65 l290 0 -85 79
c-51 48 -80 83 -75 89 6 4 45 36 88 70 l78 61 -200 0 -201 0 0 -99z"/>
<path d="M1880 840 c0 -44 1 -80 3 -80 1 0 40 20 86 44 l84 44 -75 36 c-41 20
-80 36 -87 36 -7 0 -11 -27 -11 -80z"/>
</g>
</svg>
